<mxfile host="app.diagrams.net" modified="2022-06-01T01:03:14.347Z" agent="5.0 (Windows NT 10.0; Win64; x64) AppleWebKit/537.36 (KHTML, like Gecko) Chrome/101.0.4951.67 Safari/537.36" etag="hA_4LJbCNq35Th1HBHVq" version="18.1.1" type="github">
  <diagram id="OuMp7x7RUH7uxH5lp6Tl" name="Page-1">
    <mxGraphModel dx="1662" dy="788" grid="1" gridSize="10" guides="1" tooltips="1" connect="1" arrows="1" fold="1" page="1" pageScale="1" pageWidth="850" pageHeight="1100" math="0" shadow="0">
      <root>
        <mxCell id="0" />
        <mxCell id="1" parent="0" />
        <mxCell id="dscC3kVdt7EE0XwmR5pF-3" value="" style="edgeStyle=orthogonalEdgeStyle;rounded=0;orthogonalLoop=1;jettySize=auto;html=1;" parent="1" source="dscC3kVdt7EE0XwmR5pF-1" target="dscC3kVdt7EE0XwmR5pF-2" edge="1">
          <mxGeometry relative="1" as="geometry" />
        </mxCell>
        <mxCell id="dscC3kVdt7EE0XwmR5pF-5" value="" style="edgeStyle=orthogonalEdgeStyle;rounded=0;orthogonalLoop=1;jettySize=auto;html=1;" parent="1" source="dscC3kVdt7EE0XwmR5pF-1" target="dscC3kVdt7EE0XwmR5pF-4" edge="1">
          <mxGeometry relative="1" as="geometry" />
        </mxCell>
        <mxCell id="dscC3kVdt7EE0XwmR5pF-1" value="bay" style="html=1;fillColor=#FF3333;" parent="1" vertex="1">
          <mxGeometry x="160" y="70" width="110" height="50" as="geometry" />
        </mxCell>
        <mxCell id="dscC3kVdt7EE0XwmR5pF-2" value="bayEntity" style="html=1;" parent="1" vertex="1">
          <mxGeometry x="350" y="70" width="110" height="50" as="geometry" />
        </mxCell>
        <mxCell id="dscC3kVdt7EE0XwmR5pF-4" value="&lt;span style=&quot;color: rgba(0, 0, 0, 0.9); font-family: &amp;quot;Segoe UI VSS (Regular)&amp;quot;, &amp;quot;Segoe UI&amp;quot;, -apple-system, BlinkMacSystemFont, Roboto, &amp;quot;Helvetica Neue&amp;quot;, Helvetica, Ubuntu, Arial, sans-serif, &amp;quot;Apple Color Emoji&amp;quot;, &amp;quot;Segoe UI Emoji&amp;quot;, &amp;quot;Segoe UI Symbol&amp;quot;; font-size: 15px; text-align: left; background-color: rgb(255, 255, 255);&quot;&gt;CircuitEntity&lt;/span&gt;" style="html=1;" parent="1" vertex="1">
          <mxGeometry x="230" y="180" width="110" height="50" as="geometry" />
        </mxCell>
        <mxCell id="dscC3kVdt7EE0XwmR5pF-13" value="" style="edgeStyle=orthogonalEdgeStyle;rounded=0;orthogonalLoop=1;jettySize=auto;html=1;" parent="1" source="dscC3kVdt7EE0XwmR5pF-9" target="dscC3kVdt7EE0XwmR5pF-12" edge="1">
          <mxGeometry relative="1" as="geometry" />
        </mxCell>
        <mxCell id="dscC3kVdt7EE0XwmR5pF-9" value="&lt;span style=&quot;color: rgba(0, 0, 0, 0.9); font-family: &amp;quot;Segoe UI VSS (Regular)&amp;quot;, &amp;quot;Segoe UI&amp;quot;, -apple-system, BlinkMacSystemFont, Roboto, &amp;quot;Helvetica Neue&amp;quot;, Helvetica, Ubuntu, Arial, sans-serif, &amp;quot;Apple Color Emoji&amp;quot;, &amp;quot;Segoe UI Emoji&amp;quot;, &amp;quot;Segoe UI Symbol&amp;quot;; font-size: 15px; text-align: left; background-color: rgb(255, 255, 255);&quot;&gt;PowerTransformer&lt;/span&gt;" style="html=1;fillColor=#FFFFFF;" parent="1" vertex="1">
          <mxGeometry x="180" y="285" width="170" height="50" as="geometry" />
        </mxCell>
        <mxCell id="dscC3kVdt7EE0XwmR5pF-12" value="&lt;span style=&quot;color: rgba(0, 0, 0, 0.9); font-family: &amp;quot;Segoe UI VSS (Regular)&amp;quot;, &amp;quot;Segoe UI&amp;quot;, -apple-system, BlinkMacSystemFont, Roboto, &amp;quot;Helvetica Neue&amp;quot;, Helvetica, Ubuntu, Arial, sans-serif, &amp;quot;Apple Color Emoji&amp;quot;, &amp;quot;Segoe UI Emoji&amp;quot;, &amp;quot;Segoe UI Symbol&amp;quot;; font-size: 15px; text-align: left; background-color: rgb(255, 255, 255);&quot;&gt;PowerTransformerEntity&lt;br&gt;&lt;br&gt;&lt;/span&gt;" style="whiteSpace=wrap;html=1;fillColor=#FFFFFF;" parent="1" vertex="1">
          <mxGeometry x="425" y="262.5" width="175" height="95" as="geometry" />
        </mxCell>
        <mxCell id="dscC3kVdt7EE0XwmR5pF-16" value="&lt;span style=&quot;text-align: left; background-color: rgb(255, 255, 255);&quot;&gt;&lt;font face=&quot;Segoe UI VSS (Regular), Segoe UI, -apple-system, BlinkMacSystemFont, Roboto, Helvetica Neue, Helvetica, Ubuntu, Arial, sans-serif, Apple Color Emoji, Segoe UI Emoji, Segoe UI Symbol&quot; color=&quot;rgba(0, 0, 0, 0.901960784313726)&quot;&gt;&lt;span style=&quot;font-size: 15px;&quot;&gt;DeviceEntity&lt;/span&gt;&lt;/font&gt;&lt;/span&gt;" style="html=1;" parent="1" vertex="1">
          <mxGeometry x="340" y="400" width="110" height="50" as="geometry" />
        </mxCell>
        <mxCell id="dscC3kVdt7EE0XwmR5pF-19" value="" style="edgeStyle=orthogonalEdgeStyle;rounded=0;orthogonalLoop=1;jettySize=auto;html=1;" parent="1" source="dscC3kVdt7EE0XwmR5pF-18" target="dscC3kVdt7EE0XwmR5pF-16" edge="1">
          <mxGeometry relative="1" as="geometry" />
        </mxCell>
        <mxCell id="dscC3kVdt7EE0XwmR5pF-18" value="&lt;div style=&quot;text-align: left;&quot;&gt;&lt;font color=&quot;#a00031&quot;&gt;&lt;span style=&quot;font-size: 15px; background-color: rgb(255, 255, 255);&quot;&gt;measureEquipment&lt;/span&gt;&lt;/font&gt;&lt;/div&gt;" style="html=1;fillColor=#FFFFFF;" parent="1" vertex="1">
          <mxGeometry x="90" y="400" width="170" height="50" as="geometry" />
        </mxCell>
      </root>
    </mxGraphModel>
  </diagram>
</mxfile>
